<?xml version="1.0" encoding="UTF-8" standalone="no"?>
<!-- Created with Inkscape (http://www.inkscape.org/) -->

<svg
   xmlns:dc="http://purl.org/dc/elements/1.1/"
   xmlns:cc="http://creativecommons.org/ns#"
   xmlns:rdf="http://www.w3.org/1999/02/22-rdf-syntax-ns#"
   xmlns:svg="http://www.w3.org/2000/svg"
   xmlns="http://www.w3.org/2000/svg"
   xmlns:sodipodi="http://sodipodi.sourceforge.net/DTD/sodipodi-0.dtd"
   xmlns:inkscape="http://www.inkscape.org/namespaces/inkscape"
   version="1.1"
   id="svg2"
   xml:space="preserve"
   width="967.59869"
   height="480"
   viewBox="0 0 967.59869 480"
   sodipodi:docname="Comenta y gana.svg"
   inkscape:version="0.92.3 (2405546, 2018-03-11)"
   inkscape:export-filename="/home/ericlucero/Documents/devTeach/00-proyects/01-cyg-frontend/src/media/Comenta y gana-white.png"
   inkscape:export-xdpi="90"
   inkscape:export-ydpi="90"><metadata
     id="metadata8"><rdf:RDF><cc:Work
         rdf:about=""><dc:format>image/svg+xml</dc:format><dc:type
           rdf:resource="http://purl.org/dc/dcmitype/StillImage" /><dc:title></dc:title></cc:Work></rdf:RDF></metadata><defs
     id="defs6"><clipPath
       clipPathUnits="userSpaceOnUse"
       id="clipPath20"><path
         d="M 0,360 H 725.699 V 0 H 0 Z"
         id="path18"
         inkscape:connector-curvature="0" /></clipPath><clipPath
       clipPathUnits="userSpaceOnUse"
       id="clipPath56"><path
         d="M 0,360 H 725.699 V 0 H 0 Z"
         id="path54"
         inkscape:connector-curvature="0" /></clipPath></defs><sodipodi:namedview
     pagecolor="#434aff"
     bordercolor="#666666"
     borderopacity="1"
     objecttolerance="10"
     gridtolerance="10"
     guidetolerance="10"
     inkscape:pageopacity="0"
     inkscape:pageshadow="2"
     inkscape:window-width="1853"
     inkscape:window-height="1016"
     id="namedview4"
     showgrid="false"
     inkscape:zoom="1.0377149"
     inkscape:cx="460.73693"
     inkscape:cy="142.86538"
     inkscape:window-x="67"
     inkscape:window-y="27"
     inkscape:window-maximized="1"
     inkscape:current-layer="g52" /><g
     id="g10"
     inkscape:groupmode="layer"
     inkscape:label="Comenta y gana"
     transform="matrix(1.3333333,0,0,-1.3333333,0,480)"><g
       id="g14"><g
         id="g16"
         clip-path="url(#clipPath20)"><g
           id="g22"
           transform="translate(24.7691,161.9912)"><path
             d="m 0,0 c 0,30.029 22.12,51.902 54.25,51.902 15.942,0 28.917,-5.808 35.096,-16.311 L 71.674,21.502 c -4.078,6.55 -10.38,10.134 -19.03,10.134 -16.807,0 -27.929,-12.976 -27.929,-30.03 0,-11.616 7.909,-19.401 21.132,-19.401 7.785,0 14.953,2.966 21.132,10.01 L 81.437,-21.997 C 71.674,-33.737 58.946,-38.063 43.499,-38.063 16.93,-38.063 0,-22.614 0,0"
             style="fill:#ffffff;fill-opacity:1;fill-rule:nonzero;stroke:none"
             id="path24"
             inkscape:connector-curvature="0" /></g><g
           id="g26"
           transform="translate(163.5464,162.1152)"><path
             d="m 0,0 c 0,7.785 -4.572,12.852 -12.605,12.852 -9.392,0 -15.941,-7.539 -15.941,-18.785 0,-7.785 4.572,-12.728 12.605,-12.728 C -6.549,-18.661 0,-11.122 0,0 m -52.397,-7.044 c 0,22.12 17.178,38.68 41.152,38.68 21.378,0 35.096,-11.988 35.096,-30.401 0,-22.244 -17.178,-38.803 -41.152,-38.803 -21.379,0 -35.096,12.11 -35.096,30.524"
             style="fill:#ffffff;fill-opacity:1;fill-rule:nonzero;stroke:none"
             id="path28"
             inkscape:connector-curvature="0" /></g><g
           id="g30"
           transform="translate(347.9258,165.6982)"><path
             d="M 0,0 H 27.558 C 27.681,7.168 22.614,11.369 15.076,11.369 7.167,11.369 2.224,6.673 0,0 M 47.824,-12.357 H -1.36 c 0.865,-7.415 5.932,-10.875 15.201,-10.875 5.931,0 11.74,1.853 16.188,5.437 l 9.763,-14.706 c -8.403,-6.179 -18.413,-8.65 -28.547,-8.65 -21.502,0 -35.59,11.863 -35.59,30.524 0,22.243 16.436,38.68 40.533,38.68 20.391,0 32.996,-11.864 32.996,-29.412 0,-3.954 -0.618,-7.662 -1.36,-10.998"
             style="fill:#ffffff;fill-opacity:1;fill-rule:nonzero;stroke:none"
             id="path32"
             inkscape:connector-curvature="0" /></g><g
           id="g34"
           transform="translate(479.6587,171.0127)"><path
             d="M 0,0 C 0,-2.596 -0.247,-5.314 -0.865,-8.28 L -8.28,-45.354 h -23.479 l 6.92,34.849 c 0.371,1.608 0.494,3.09 0.494,4.449 0,5.809 -2.966,8.898 -9.268,8.898 -8.033,0 -13.594,-4.82 -15.695,-15.076 l -6.672,-33.12 h -23.48 l 13.346,66.98 h 22.244 l -1.359,-6.921 c 5.932,5.561 13.593,8.033 21.008,8.033 C -9.887,22.738 0,14.953 0,0"
             style="fill:#ffffff;fill-opacity:1;fill-rule:nonzero;stroke:none"
             id="path36"
             inkscape:connector-curvature="0" /></g><g
           id="g38"
           transform="translate(517.3516,150.6221)"><path
             d="m 0,0 c -0.124,-0.865 -0.248,-1.606 -0.248,-2.225 0,-3.707 2.101,-5.684 6.179,-5.684 2.472,0 4.696,0.741 7.045,1.977 l 2.965,-16.188 c -4.943,-2.843 -11.245,-3.955 -17.424,-3.955 -13.717,0 -22.615,7.168 -22.615,19.649 0,1.978 0.124,4.077 0.618,6.303 l 4.449,22.12 h -9.887 l 3.584,17.548 h 9.763 l 3.46,17.424 h 23.48 L 7.909,39.545 h 15.2 L 19.648,21.997 H 4.449 Z"
             style="fill:#ffffff;fill-opacity:1;fill-rule:nonzero;stroke:none"
             id="path40"
             inkscape:connector-curvature="0" /></g><g
           id="g42"
           transform="translate(594.0933,162.1152)"><path
             d="m 0,0 c 0,7.785 -4.696,12.852 -12.729,12.852 -9.268,0 -15.941,-7.539 -15.941,-18.785 0,-7.785 4.696,-12.728 12.729,-12.728 C -6.549,-18.661 0,-11.122 0,0 M 29.535,30.523 16.188,-36.456 H -6.055 l 1.359,6.303 c -5.191,-4.82 -11.616,-7.415 -19.402,-7.415 -14.458,0 -28.299,10.998 -28.299,30.524 0,22.243 16.313,38.68 36.332,38.68 9.021,0 16.312,-2.72 20.514,-9.146 l 1.606,8.033 z"
             style="fill:#ffffff;fill-opacity:1;fill-rule:nonzero;stroke:none"
             id="path44"
             inkscape:connector-curvature="0" /></g></g></g><text
       transform="matrix(1,0,0,-1,132.7822,90.1709)"
       style="font-variant:normal;font-weight:bold;font-stretch:normal;font-size:43.19440079px;font-family:Montserrat;-inkscape-font-specification:Montserrat-Bold;writing-mode:lr-tb;fill:#ffffff;fill-opacity:1;fill-rule:nonzero;stroke:none"
       id="text48"><tspan
         x="0"
         y="0"
         id="tspan46">y</tspan></text>
<g
       id="g50"><g
         id="g52"
         clip-path="url(#clipPath56)"><g
           id="g58"
           transform="translate(221.3809,159.1494)"><path
             d="m 0,0 c 2.102,10.38 7.167,14.705 14.335,14.705 5.314,0 8.403,-3.089 8.403,-9.021 0,-1.36 -0.123,-2.965 -0.493,-4.573 l -3.668,-18.016 c 8.451,-2.906 15.316,-7.762 20.513,-14.547 l 6.387,31.698 c 2.101,10.258 7.168,14.459 14.211,14.459 5.314,0 8.403,-2.966 8.403,-8.897 0,-1.484 -0.123,-2.966 -0.494,-4.697 l -6.92,-34.601 h 23.48 l 7.291,37.073 c 0.617,2.966 0.865,5.685 0.865,8.28 0,14.953 -9.763,22.739 -23.48,22.739 -10.01,0 -18.414,-3.831 -24.592,-10.875 -3.831,7.291 -11.492,10.875 -20.143,10.875 -7.291,0 -14.335,-2.473 -20.02,-7.91 l 1.36,6.797 h -22.245 l -10.226,-51.326 c 7.297,2.706 15.471,4.165 24.31,4.168 z"
             style="fill:#ffffff;fill-opacity:1;fill-rule:nonzero;stroke:none"
             id="path60"
             inkscape:connector-curvature="0" /></g><g
           id="g62"
           transform="translate(226.96,96.8789)"><path
             d="m 0,0 h 21.625 l -7.291,-36.456 c -8.897,-6.673 -21.008,-10.38 -34.106,-10.38 -26.447,0 -43.5,15.447 -43.5,38.062 0,30.029 22.12,51.903 54.992,51.903 17.301,0 29.905,-5.562 37.691,-15.942 L 11.863,13.346 c -5.685,7.044 -12.358,9.516 -21.256,9.516 -17.795,0 -29.164,-12.729 -29.164,-30.03 0,-11.615 7.909,-19.401 22.121,-19.401 3.955,0 7.785,0.618 11.493,2.101 z"
             style="fill:#ffffff;fill-opacity:1;fill-rule:nonzero;stroke:none"
             id="path64"
             inkscape:connector-curvature="0" /></g><g
           id="g66"
           transform="translate(308.6441,88.2295)"><path
             d="m 0,0 c 0,7.784 -4.696,12.852 -12.729,12.852 -9.268,0 -15.941,-7.54 -15.941,-18.785 0,-7.785 4.696,-12.728 12.729,-12.728 C -6.549,-18.661 0,-11.123 0,0 M 29.535,30.522 16.189,-36.457 H -6.055 l 1.359,6.303 c -5.19,-4.82 -11.616,-7.414 -19.402,-7.414 -14.458,0 -28.299,10.998 -28.299,30.523 0,22.244 16.313,38.68 36.332,38.68 9.022,0 16.312,-2.719 20.514,-9.145 l 1.606,8.032 z"
             style="fill:#ffffff;fill-opacity:1;fill-rule:nonzero;stroke:none"
             id="path68"
             inkscape:connector-curvature="0" /></g><g
           id="g70"
           transform="translate(419.3701,97.126)"><path
             d="M 0,0 C 0,-2.596 -0.247,-5.313 -0.865,-8.279 L -8.28,-45.354 h -23.479 l 6.92,34.85 c 0.371,1.608 0.494,3.089 0.494,4.448 0,5.809 -2.966,8.899 -9.268,8.899 -8.033,0 -13.594,-4.821 -15.695,-15.077 l -6.672,-33.12 h -23.48 l 13.346,66.98 h 22.244 l -1.359,-6.92 c 5.932,5.561 13.593,8.032 21.008,8.032 C -9.887,22.738 0,14.953 0,0"
             style="fill:#ffffff;fill-opacity:1;fill-rule:nonzero;stroke:none"
             id="path72"
             inkscape:connector-curvature="0" /></g><g
           id="g74"
           transform="translate(465.5884,69.5684)"><path
             d="m 0,0 c -8.032,0 -12.729,4.943 -12.729,12.729 0,11.245 6.674,18.784 15.942,18.784 8.033,0 12.728,-5.068 12.728,-12.852 C 15.941,7.538 9.392,0 0,0 m 20.348,-1.298 c 2.341,2.343 5.361,3.581 8.732,3.581 2.452,0 4.714,-0.663 6.669,-1.922 l 9.728,48.823 h -23.48 l -1.606,-8.033 c -4.202,6.426 -11.493,9.145 -20.515,9.145 -20.019,0 -36.332,-16.436 -36.332,-38.68 0,-19.525 13.842,-30.523 28.3,-30.523 7.785,0 14.211,2.595 19.402,7.414 l -1.36,-6.303 h 9.594 c -1.777,2.183 -2.712,4.842 -2.712,7.766 0,3.37 1.237,6.388 3.58,8.732"
             style="fill:#ffffff;fill-opacity:1;fill-rule:nonzero;stroke:none"
             id="path76"
             inkscape:connector-curvature="0" /></g><g
           id="g78"
           transform="translate(488.8389,53.71)"><path
             d="m 0,0 c -1.585,1.585 -2.378,3.527 -2.378,5.828 0,2.3 0.793,4.244 2.378,5.83 1.585,1.586 3.528,2.379 5.829,2.379 2.3,0 4.245,-0.793 5.83,-2.379 1.586,-1.586 2.379,-3.53 2.379,-5.83 C 14.038,3.527 13.245,1.585 11.659,0 10.074,-1.586 8.129,-2.379 5.829,-2.379 3.528,-2.379 1.585,-1.586 0,0"
             style="fill:#ffffff;fill-opacity:1;fill-rule:nonzero;stroke:none"
             id="path80"
             inkscape:connector-curvature="0" /></g><g
           id="g82"
           transform="translate(538.7852,63.7354)"><path
             d="m 0,0 c 4.664,0 8.861,2.333 12.592,6.996 l 8.301,-9.328 C 14.425,-9.046 7.43,-12.404 -0.093,-12.404 c -7.525,0 -13.883,2.379 -19.074,7.135 -5.193,4.757 -7.789,10.973 -7.789,18.654 0,7.678 2.627,13.928 7.882,18.748 5.254,4.818 11.487,7.228 18.701,7.228 3.605,0 7.259,-0.746 10.959,-2.239 3.7,-1.492 6.949,-3.7 9.747,-6.622 l -7.275,-9.514 c -1.617,1.927 -3.591,3.419 -5.922,4.478 -2.332,1.057 -4.65,1.586 -6.949,1.586 -3.67,0 -6.825,-1.198 -9.467,-3.592 -2.644,-2.395 -3.964,-5.722 -3.964,-9.979 0,-4.26 1.32,-7.572 3.964,-9.934 C -6.638,1.182 -3.544,0 0,0"
             style="fill:#ffffff;fill-opacity:1;fill-rule:nonzero;stroke:none"
             id="path84"
             inkscape:connector-curvature="0" /></g><g
           id="g86"
           transform="translate(579.3585,77.167)"><path
             d="m 0,0 c 0,-4.104 1.166,-7.446 3.498,-10.027 2.331,-2.58 5.316,-3.87 8.954,-3.87 3.637,0 6.622,1.29 8.954,3.87 2.331,2.581 3.497,5.923 3.497,10.027 0,4.104 -1.166,7.463 -3.497,10.073 -2.332,2.613 -5.317,3.918 -8.954,3.918 -3.638,0 -6.623,-1.305 -8.954,-3.918 C 1.166,7.463 0,4.104 0,0 m 38.987,0 c 0,-7.274 -2.518,-13.4 -7.554,-18.374 -5.037,-4.977 -11.366,-7.462 -18.981,-7.462 -7.618,0 -13.945,2.485 -18.981,7.462 -5.036,4.974 -7.555,11.1 -7.555,18.374 0,7.275 2.519,13.415 7.555,18.421 5.036,5.005 11.363,7.509 18.981,7.509 7.615,0 13.944,-2.504 18.981,-7.509 C 36.469,13.415 38.987,7.275 38.987,0"
             style="fill:#ffffff;fill-opacity:1;fill-rule:nonzero;stroke:none"
             id="path88"
             inkscape:connector-curvature="0" /></g><g
           id="g90"
           transform="translate(674.7735,79.126)"><path
             d="M 0,0 V -27.049 H -14.083 V 0.372 c 0,3.98 -0.607,6.903 -1.82,8.769 -1.212,1.865 -3.171,2.797 -5.876,2.797 -2.705,0 -5.099,-1.011 -7.181,-3.031 -2.084,-2.02 -3.125,-4.99 -3.125,-8.907 v -27.049 h -13.991 v 50.18 h 13.991 v -5.69 c 3.855,4.352 8.269,6.53 13.245,6.53 3.171,0 6.046,-0.933 8.627,-2.798 2.579,-1.866 4.524,-4.137 5.83,-6.809 1.926,3.045 4.523,5.408 7.788,7.088 3.264,1.679 6.543,2.519 9.84,2.519 5.907,0 10.664,-1.758 14.27,-5.27 3.606,-3.514 5.41,-8.597 5.41,-15.25 v -30.5 H 18.841 V 0.372 c 0,7.71 -2.83,11.566 -8.487,11.566 C 7.555,11.938 5.13,10.927 3.078,8.907 1.026,6.887 0,3.917 0,0"
             style="fill:#ffffff;fill-opacity:1;fill-rule:nonzero;stroke:none"
             id="path92"
             inkscape:connector-curvature="0" /></g><g
           id="g94"
           transform="translate(397.4385,227.8457)"><path
             d="M 0,0 V -15.28 C -4.993,-9.706 -9.586,-4.964 -13.713,0 h -6.206 C -11.548,-9.367 -3.84,-17.992 4.64,-27.479 V 0 Z"
             style="fill:#ff6a00;fill-opacity:1;fill-rule:nonzero;stroke:none"
             id="path96"
             inkscape:connector-curvature="0" /></g><g
           id="g98"
           transform="translate(360.7578,325.5088)"><path
             d="m 0,0 c -0.377,0.359 -0.755,0.72 -1.132,1.079 1.149,5.14 2.072,10.344 3.52,15.399 1.095,3.824 4.748,5.808 8.837,5.515 3.863,-0.276 7.199,-3.176 8.188,-7.116 C 20.336,11.199 18.767,6.741 15.258,5.263 10.311,3.178 5.099,1.724 0,0 m -5.298,-17.764 c -1.118,-0.055 -2.133,-0.15 -3.148,-0.151 -16.558,-0.009 -33.117,-0.011 -49.675,-0.003 -4.347,0.002 -4.671,0.313 -4.644,4.617 0.062,9.883 -1.268,8.824 8.904,8.839 14.986,0.023 29.972,0.006 44.958,0.006 h 3.605 z M -22.11,9.034 c 0.249,3.018 2.432,5.514 5.375,6.149 3.146,0.678 6.236,-0.471 7.322,-3.341 C -8.11,8.399 -7.354,4.75 -6.36,1.19 -6.675,0.935 -6.989,0.678 -7.304,0.422 c -3.465,0.626 -6.979,1.057 -10.379,1.935 -3.144,0.813 -4.692,3.47 -4.427,6.677 M 61.188,-7.882 C 61.119,-2.763 58.571,-0.194 53.4,-0.176 46.377,-0.15 39.353,-0.231 32.329,-0.25 26.646,-0.265 20.962,-0.253 15.279,-0.253 c 0.716,0.902 1.536,1.302 2.32,1.762 4.893,2.868 7.246,8.546 5.953,14.331 -1.293,5.79 -6.117,9.967 -12.198,10.561 -5.251,0.513 -10.657,-2.698 -12.769,-7.807 -1.007,-2.438 -1.654,-5.023 -2.499,-7.647 -4.828,8.513 -10.941,11.019 -17.185,7.157 -6.183,-3.826 -6.993,-10.891 -1.719,-18.473 -1.307,0 -2.131,-0.004 -2.954,0.001 -11.111,0.068 -22.224,0.237 -33.333,0.116 -2.035,-0.022 -4.477,-0.717 -6,-1.981 -3.474,-2.885 -3.081,-15.636 0.476,-18.359 1.588,-1.215 1.888,-2.424 1.884,-4.188 -0.04,-22.856 -0.029,-45.711 -0.025,-68.566 0.002,-6.21 2.353,-8.592 8.509,-8.592 25.346,-0.005 50.693,-0.003 76.039,0 v 4.408 c -25.225,-0.002 -50.449,-0.002 -75.674,0 -4.278,0 -4.464,0.184 -4.464,4.419 -0.003,22.536 -0.004,45.071 0.004,67.607 0.001,1.022 0.086,2.042 0.147,3.38 h 3.561 c 16.562,0 33.123,-0.004 49.685,0.003 3.955,0.002 4.018,0.071 4.028,4.079 0.012,4.383 0.003,8.766 0.003,13.399 1.279,0.073 2.286,0.179 3.291,0.18 16.667,0.01 33.333,0.011 49.999,0.004 4.115,-0.001 4.46,-0.322 4.417,-4.539 -0.1,-9.787 1.457,-8.899 -8.838,-8.921 -7.652,-0.016 -15.304,0.006 -22.956,-0.013 -1.563,-0.004 -3.435,0.18 -3.45,-2.136 -0.015,-2.408 1.922,-2.043 3.445,-2.046 8.994,-0.02 17.987,-0.01 27.22,-0.01 0.067,-1.262 0.166,-2.272 0.167,-3.28 0.009,-22.536 0.008,-45.073 0.005,-67.609 0,-4.334 -0.175,-4.517 -4.379,-4.517 H 40.77 v -4.408 h 7.503 c 6.154,0 8.471,2.366 8.472,8.614 0.005,22.646 0.015,45.292 -0.02,67.937 -0.003,2.044 0.218,3.586 2.099,5.08 1.327,1.054 1.98,3.356 2.277,5.205 0.378,2.351 0.119,4.809 0.087,7.22"
             style="fill:#ff6a00;fill-opacity:1;fill-rule:nonzero;stroke:none"
             id="path100"
             inkscape:connector-curvature="0" /></g><g
           id="g102"
           transform="translate(370.7774,303.4258)"><path
             d="m 0,0 c -1.461,0 -2.957,-0.187 -4.367,0.08 -0.687,0.131 -1.743,1.164 -1.689,1.692 0.082,0.805 0.944,2.142 1.543,2.18 C -1.297,4.157 1.946,4.126 5.164,3.923 5.715,3.889 6.606,2.619 6.582,1.948 6.558,1.286 5.645,0.212 4.993,0.104 3.368,-0.162 1.669,0.017 0,0.017 Z"
             style="fill:#ff6a00;fill-opacity:1;fill-rule:nonzero;stroke:none"
             id="path104"
             inkscape:connector-curvature="0" /></g><g
           id="g106"
           transform="translate(208.7334,81.2715)"
           style="fill:#ffffff;fill-opacity:1"><path
             d="m 0,0 h 35.572 l 3.47,15.616 H 0 Z"
             style="fill:#ffffff;fill-opacity:1;fill-rule:nonzero;stroke:none"
             id="path108"
             inkscape:connector-curvature="0" /></g><g
           id="g110"
           transform="translate(377.8623,237.9658)"
           style="fill:#ff6a00;fill-opacity:1"><path
             d="m 0,0 c 0.014,1.959 -1.182,3.487 -3.111,3.722 -4.146,0.505 -8.302,0.927 -12.455,1.366 -1.037,0.109 -2.07,0.33 -3.102,-0.173 -1.413,-0.687 -2.223,-1.998 -2.113,-3.617 0.085,-1.243 1.177,-2.638 2.525,-2.934 1.319,-0.29 2.681,-0.396 4.029,-0.542 3.366,-0.363 6.733,-0.705 10.102,-1.046 0.354,-0.035 0.714,-0.004 1.071,-0.004 C -1.33,-2.894 -0.01,-1.518 0,0 m 8.819,28.971 c 0.026,2.447 -1.553,4.314 -3.92,4.587 -4.206,0.485 -8.418,0.918 -12.629,1.349 -1.501,0.155 -3.017,0.407 -4.51,0.326 -2.379,-0.129 -3.961,-1.996 -3.936,-4.335 0.025,-2.285 1.638,-4.063 3.931,-4.316 5.125,-0.565 10.249,-1.132 15.376,-1.678 0.658,-0.07 1.329,-0.017 1.994,-0.022 2.344,0.338 3.675,2.343 3.694,4.089 m -28.6,-17.82 c -0.199,-2.053 0.887,-3.908 2.878,-4.495 1.29,-0.381 2.672,-0.468 4.02,-0.628 C -8.555,5.516 -4.22,5.061 0.104,4.52 2.19,4.26 3.935,4.718 5.124,6.541 c 1.469,2.253 0.441,6.227 -2.903,6.627 -4.833,0.58 -9.676,1.081 -14.516,1.603 -1.27,0.138 -2.545,0.232 -3.818,0.346 -2.05,-0.473 -3.473,-1.957 -3.668,-3.966 m 5.262,5.323 c 4.64,-0.486 9.278,-0.974 13.919,-1.452 1.429,-0.146 2.859,-0.331 4.293,-0.371 1.835,-0.052 3.445,1.12 4.096,2.83 0.636,1.674 0.109,3.479 -1.227,4.782 -1.022,0.997 -2.28,1.085 -3.553,1.217 -5.48,0.575 -10.961,1.124 -16.439,1.714 -3.359,0.363 -5.539,-2.382 -5.041,-5.048 0.337,-1.931 1.989,-3.467 3.952,-3.672 m 7.381,23.642 c 1.871,3.176 3.694,6.386 5.399,9.653 0.917,1.756 1.424,3.702 1.451,5.713 0.027,1.858 -0.502,3.455 -2.314,4.373 -1.552,0.788 -2.827,0.397 -3.745,-1.092 -1.204,-1.955 -2.354,-3.962 -3.737,-5.788 -3.911,-5.164 -8.731,-9.286 -14.577,-12.143 -2.134,-1.043 -3.807,-2.594 -5.258,-4.439 -0.585,-0.745 -1.215,-1.476 -1.93,-2.089 -1.442,-1.236 -3.211,-1.243 -4.985,-1.13 -0.281,0.017 -0.561,0.039 -0.942,0.065 -1.439,-9.022 -2.875,-18.025 -4.328,-27.135 1.181,-0.122 2.316,-0.266 3.457,-0.328 0.214,-0.011 0.569,0.266 0.652,0.488 1.332,3.542 2.076,7.205 2.053,10.995 -0.011,1.72 -0.165,3.437 -0.241,5.156 -0.023,0.529 0.094,0.997 0.747,1.058 0.652,0.059 0.807,-0.44 0.835,-0.896 0.109,-1.768 0.248,-3.542 0.218,-5.311 -0.053,-3.113 -0.443,-6.192 -1.369,-9.18 -0.259,-0.833 -0.607,-1.639 -0.859,-2.475 -0.062,-0.206 0.009,-0.596 0.16,-0.701 2.926,-2.038 5.819,-4.13 8.831,-6.034 2.546,-1.61 5.507,-2.125 8.438,-2.534 2.073,-0.289 4.18,-0.328 6.272,-0.479 0.008,0.083 0.015,0.167 0.023,0.25 -1.325,0.143 -2.649,0.3 -3.975,0.421 -1.378,0.126 -2.641,0.42 -3.77,1.356 -1.165,0.966 -1.608,2.235 -1.91,3.589 -0.296,1.33 -0.371,2.711 -0.715,4.026 -0.823,3.133 -2.823,5.383 -5.597,6.962 -0.589,0.335 -1.043,0.681 -0.986,1.407 0.052,0.657 0.572,0.823 1.095,1.029 3.703,1.459 6.251,4.168 8.135,7.582 1.511,2.742 2.322,5.706 2.772,8.782 0.348,2.384 1.444,4.245 3.761,5.13 0.788,0.301 1.709,0.374 2.565,0.354 1.683,-0.04 3.364,-0.218 5.091,-0.343 -1.969,1.313 -1.84,1.801 -0.717,3.708 M 1.754,-4.157 c -1.442,-1.592 -3.176,-2.53 -5.345,-2.44 -1.586,0.067 -3.165,0.293 -4.75,0.393 -0.338,0.021 -0.704,-0.163 -1.034,-0.306 -0.628,-0.269 -1.235,-0.815 -1.857,-0.825 -2.408,-0.042 -4.834,-0.067 -7.225,0.181 -3.562,0.37 -7.121,1.02 -10.278,2.801 -2.443,1.379 -4.682,3.114 -7.043,4.643 -1.483,0.962 -2.761,2.36 -4.768,2.274 -0.685,-0.029 -1.379,0.165 -2.069,0.163 -0.365,-10e-4 -0.808,-0.107 -1.083,-0.329 -1.067,-0.86 -2.266,-1.251 -3.602,-1.053 -2.895,0.426 -5.778,0.94 -8.673,1.37 -2.766,0.41 -4.148,3.009 -3.779,5.264 1.608,9.847 3.135,19.708 4.712,29.559 0.415,2.595 2.605,4.17 5.196,3.772 2.864,-0.441 5.72,-0.928 8.582,-1.379 1.447,-0.229 2.654,-0.933 3.196,-2.259 0.405,-0.991 1.027,-1.07 1.875,-1.16 1.357,-0.144 2.367,0.246 3.183,1.396 1.706,2.403 3.778,4.437 6.459,5.754 7.557,3.713 13.217,9.371 17.226,16.736 1.095,2.012 2.773,3.234 5.091,3.245 3.718,0.018 7.295,-2.996 7.335,-7.615 0.026,-2.919 -0.731,-5.672 -2.024,-8.237 -1.366,-2.713 -2.952,-5.315 -4.427,-7.975 -0.148,-0.265 -0.351,-0.782 -0.265,-0.85 0.492,-0.392 0.529,-1.191 1.418,-1.263 2.608,-0.214 5.222,-0.45 7.801,-0.878 4.7,-0.779 7.435,-4.99 6.362,-9.575 C 11.637,25.832 10.884,24.656 9.906,23.633 12.337,20.112 11.758,15.492 8.581,13.023 8.229,12.75 8.303,12.513 8.445,12.165 9.606,9.306 9.402,6.576 7.55,4.057 6.506,2.636 4.993,1.87 3.271,1.271 3.6,-0.807 3.159,-2.607 1.754,-4.157"
             style="fill:#ff6a00;fill-opacity:1;fill-rule:nonzero;stroke:none"
             id="path112"
             inkscape:connector-curvature="0" /></g></g></g></g></svg>